<?xml version="1.0" encoding="UTF-8"?>
<svg width="1920px" height="1080px" viewBox="0 0 1920 1080" version="1.1" xmlns="http://www.w3.org/2000/svg">
    <title>City Skyline with Sunset</title>
    <defs>
        <linearGradient id="sunsetSky" x1="0%" y1="0%" x2="0%" y2="100%">
            <stop offset="0%" stop-color="#4b6cb7" />
            <stop offset="40%" stop-color="#f78ca0" />
            <stop offset="70%" stop-color="#f9a86c" />
            <stop offset="100%" stop-color="#f15a22" />
        </linearGradient>
    </defs>
    <g stroke="none" stroke-width="1" fill="none" fill-rule="evenodd">
        <!-- Sky background -->
        <rect fill="url(#sunsetSky)" x="0" y="0" width="1920" height="1080"></rect>
        
        <!-- Clouds -->
        <path d="M100,300 C150,280 200,290 250,300 C300,310 350,290 400,300 C450,310 500,290 550,300 C600,310 650,290 700,300 C750,310 800,290 850,300 Q900,310 950,300 L950,320 L100,320 Z" fill="white" opacity="0.3"></path>
        <path d="M700,200 C750,180 800,190 850,200 C900,210 950,190 1000,200 C1050,210 1100,190 1150,200 C1200,210 1250,190 1300,200 Q1350,210 1400,200 L1400,220 L700,220 Z" fill="white" opacity="0.2"></path>
        <path d="M1200,250 C1250,230 1300,240 1350,250 C1400,260 1450,240 1500,250 C1550,260 1600,240 1650,250 C1700,260 1750,240 1800,250 Q1850,260 1900,250 L1900,270 L1200,270 Z" fill="white" opacity="0.25"></path>
        
        <!-- City skyline silhouette -->
        <path d="M0,600 
                 L50,600 L50,580 L80,580 L80,520 L110,520 L110,560 L140,560 L140,600
                 L180,600 L180,550 L200,550 L200,530 L220,530 L220,500 L240,500 L240,530 L260,530 L260,550 L280,550 L280,600
                 L320,600 L320,570 L340,570 L340,520 L360,520 L360,550 L380,550 L380,570 L400,570 L400,600
                 L430,600 L430,580 L450,580 L450,500 L460,500 L460,480 L470,480 L470,500 L490,500 L490,580 L510,580 L510,600
                 L540,600 L540,590 L560,590 L560,530 L580,530 L580,500 L600,500 L600,530 L620,530 L620,590 L640,590 L640,600
                 L680,600 L680,570 L700,570 L700,520 L720,520 L720,480 L730,480 L730,460 L740,460 L740,480 L760,480 L760,520 L780,520 L780,570 L800,570 L800,600
                 L830,600 L830,590 L850,590 L850,550 L860,550 L860,500 L870,500 L870,430 L880,430 L880,400 L890,400 L890,380 L900,380 L900,400 L910,400 L910,430 L920,430 L920,500 L930,500 L930,550 L950,550 L950,590 L970,590 L970,600
                 L1000,600 L1000,580 L1020,580 L1020,530 L1040,530 L1040,500 L1060,500 L1060,530 L1080,530 L1080,580 L1100,580 L1100,600
                 L1130,600 L1130,590 L1150,590 L1150,540 L1170,540 L1170,520 L1190,520 L1190,540 L1210,540 L1210,590 L1230,590 L1230,600
                 L1260,600 L1260,570 L1280,570 L1280,530 L1300,530 L1300,560 L1320,560 L1320,570 L1340,570 L1340,600
                 L1370,600 L1370,580 L1390,580 L1390,550 L1410,550 L1410,500 L1420,500 L1420,470 L1430,470 L1430,450 L1440,450 L1440,470 L1450,470 L1450,500 L1470,500 L1470,550 L1490,550 L1490,580 L1510,580 L1510,600
                 L1540,600 L1540,570 L1560,570 L1560,540 L1580,540 L1580,520 L1600,520 L1600,540 L1620,540 L1620,570 L1640,570 L1640,600
                 L1670,600 L1670,580 L1690,580 L1690,550 L1710,550 L1710,580 L1730,580 L1730,600
                 L1760,600 L1760,590 L1780,590 L1780,560 L1800,560 L1800,590 L1820,590 L1820,600
                 L1850,600 L1850,580 L1870,580 L1870,530 L1890,530 L1890,580 L1910,580 L1910,600
                 L1920,600 L1920,1080 L0,1080 Z" fill="black" opacity="0.8"></path>
                 
        <!-- Empire State Building centered in silhouette -->
        <path d="M900,380 L910,380 L910,350 L905,350 L905,300 L915,300 L915,330 L920,330 L920,380 L930,380 L930,400 L900,400 Z" fill="black" opacity="0.9"></path>
        
        <!-- Building lights -->
        <g fill="#FFDC82" opacity="0.8">
            <!-- Random building lights -->
            <circle cx="200" cy="540" r="1"></circle>
            <circle cx="240" cy="510" r="1"></circle>
            <circle cx="350" cy="530" r="1"></circle>
            <circle cx="380" cy="560" r="1"></circle>
            <circle cx="460" cy="490" r="1"></circle>
            <circle cx="570" cy="510" r="1"></circle>
            <circle cx="600" cy="510" r="1"></circle>
            <circle cx="730" cy="470" r="1"></circle>
            <circle cx="760" cy="500" r="1"></circle>
            <circle cx="870" cy="450" r="1"></circle>
            <circle cx="880" cy="410" r="1"></circle>
            <circle cx="910" cy="410" r="1"></circle>
            <circle cx="920" cy="450" r="1"></circle>
            <circle cx="1050" cy="510" r="1"></circle>
            <circle cx="1180" cy="530" r="1"></circle>
            <circle cx="1290" cy="540" r="1"></circle>
            <circle cx="1310" cy="550" r="1"></circle>
            <circle cx="1430" cy="460" r="1"></circle>
            <circle cx="1440" cy="460" r="1"></circle>
            <circle cx="1450" cy="490" r="1"></circle>
            <circle cx="1590" cy="530" r="1"></circle>
            <circle cx="1700" cy="560" r="1"></circle>
            <circle cx="1790" cy="570" r="1"></circle>
            <circle cx="1880" cy="550" r="1"></circle>
        </g>
    </g>
</svg>
