<?xml version="1.0" encoding="UTF-8"?>
<svg width="120px" height="120px" viewBox="0 0 120 120" version="1.1" xmlns="http://www.w3.org/2000/svg">
    <title>Implementation Icon</title>
    <g id="implementation" stroke="none" stroke-width="1" fill="none" fill-rule="evenodd">
        <!-- Hand -->
        <path d="M40,70 C50,70 60,75 70,70 S80,55 70,50 S60,60 50,60 S35,65 40,70 Z" stroke="#f15a22" stroke-width="3" fill="none"></path>
        <path d="M40,70 L40,85 C40,90 45,95 55,95 S70,90 70,85 L70,70" stroke="#f15a22" stroke-width="3" fill="none"></path>
        
        <!-- Wrench Tool -->
        <path d="M30,40 L50,60" stroke="#f15a22" stroke-width="3" stroke-linecap="round"></path>
        <path d="M25,45 C20,40 20,30 25,25 C30,20 40,20 45,25 L55,35 C58,38 58,43 55,46 C52,49 47,49 44,46 L34,36" stroke="#f15a22" stroke-width="3" fill="none"></path>
        
        <!-- Screwdriver -->
        <path d="M65,30 L85,50" stroke="#f15a22" stroke-width="3" stroke-linecap="round"></path>
        <path d="M90,55 L80,45" stroke="#f15a22" stroke-width="3" stroke-linecap="round"></path>
        <rect x="60" y="25" width="10" height="5" transform="rotate(-45 65 27.5)" fill="#f15a22"></rect>
    </g>
</svg>
