<?xml version="1.0" encoding="UTF-8"?>
<svg width="1200px" height="1200px" viewBox="0 0 1200 1200" version="1.1" xmlns="http://www.w3.org/2000/svg">
    <title>Network Background</title>
    <g id="network-pattern" stroke="none" stroke-width="1" fill="none" fill-rule="evenodd">
        <!-- Dots and lines representing a network pattern -->
        <!-- Dots -->
        <circle cx="100" cy="100" r="8" fill="#000000" opacity="0.3"></circle>
        <circle cx="300" cy="150" r="8" fill="#000000" opacity="0.3"></circle>
        <circle cx="500" cy="100" r="8" fill="#000000" opacity="0.3"></circle>
        <circle cx="700" cy="150" r="8" fill="#000000" opacity="0.3"></circle>
        <circle cx="900" cy="100" r="8" fill="#000000" opacity="0.3"></circle>
        <circle cx="1100" cy="150" r="8" fill="#000000" opacity="0.3"></circle>
        
        <circle cx="200" cy="300" r="8" fill="#000000" opacity="0.3"></circle>
        <circle cx="400" cy="350" r="8" fill="#000000" opacity="0.3"></circle>
        <circle cx="600" cy="300" r="8" fill="#000000" opacity="0.3"></circle>
        <circle cx="800" cy="350" r="8" fill="#000000" opacity="0.3"></circle>
        <circle cx="1000" cy="300" r="8" fill="#000000" opacity="0.3"></circle>
        
        <circle cx="100" cy="500" r="8" fill="#000000" opacity="0.3"></circle>
        <circle cx="300" cy="550" r="8" fill="#000000" opacity="0.3"></circle>
        <circle cx="500" cy="500" r="8" fill="#000000" opacity="0.3"></circle>
        <circle cx="700" cy="550" r="8" fill="#000000" opacity="0.3"></circle>
        <circle cx="900" cy="500" r="8" fill="#000000" opacity="0.3"></circle>
        <circle cx="1100" cy="550" r="8" fill="#000000" opacity="0.3"></circle>
        
        <circle cx="200" cy="700" r="8" fill="#000000" opacity="0.3"></circle>
        <circle cx="400" cy="750" r="8" fill="#000000" opacity="0.3"></circle>
        <circle cx="600" cy="700" r="8" fill="#000000" opacity="0.3"></circle>
        <circle cx="800" cy="750" r="8" fill="#000000" opacity="0.3"></circle>
        <circle cx="1000" cy="700" r="8" fill="#000000" opacity="0.3"></circle>
        
        <circle cx="100" cy="900" r="8" fill="#000000" opacity="0.3"></circle>
        <circle cx="300" cy="950" r="8" fill="#000000" opacity="0.3"></circle>
        <circle cx="500" cy="900" r="8" fill="#000000" opacity="0.3"></circle>
        <circle cx="700" cy="950" r="8" fill="#000000" opacity="0.3"></circle>
        <circle cx="900" cy="900" r="8" fill="#000000" opacity="0.3"></circle>
        <circle cx="1100" cy="950" r="8" fill="#000000" opacity="0.3"></circle>
        
        <circle cx="200" cy="1100" r="8" fill="#000000" opacity="0.3"></circle>
        <circle cx="400" cy="1150" r="8" fill="#000000" opacity="0.3"></circle>
        <circle cx="600" cy="1100" r="8" fill="#000000" opacity="0.3"></circle>
        <circle cx="800" cy="1150" r="8" fill="#000000" opacity="0.3"></circle>
        <circle cx="1000" cy="1100" r="8" fill="#000000" opacity="0.3"></circle>
        
        <!-- Connection Lines -->
        <line x1="100" y1="100" x2="300" y2="150" stroke="#000000" stroke-width="1" opacity="0.1"></line>
        <line x1="300" y1="150" x2="500" y2="100" stroke="#000000" stroke-width="1" opacity="0.1"></line>
        <line x1="500" y1="100" x2="700" y2="150" stroke="#000000" stroke-width="1" opacity="0.1"></line>
        <line x1="700" y1="150" x2="900" y2="100" stroke="#000000" stroke-width="1" opacity="0.1"></line>
        <line x1="900" y1="100" x2="1100" y2="150" stroke="#000000" stroke-width="1" opacity="0.1"></line>
        
        <line x1="100" y1="100" x2="200" y2="300" stroke="#000000" stroke-width="1" opacity="0.1"></line>
        <line x1="300" y1="150" x2="400" y2="350" stroke="#000000" stroke-width="1" opacity="0.1"></line>
        <line x1="500" y1="100" x2="600" y2="300" stroke="#000000" stroke-width="1" opacity="0.1"></line>
        <line x1="700" y1="150" x2="800" y2="350" stroke="#000000" stroke-width="1" opacity="0.1"></line>
        <line x1="900" y1="100" x2="1000" y2="300" stroke="#000000" stroke-width="1" opacity="0.1"></line>
        
        <line x1="200" y1="300" x2="400" y2="350" stroke="#000000" stroke-width="1" opacity="0.1"></line>
        <line x1="400" y1="350" x2="600" y2="300" stroke="#000000" stroke-width="1" opacity="0.1"></line>
        <line x1="600" y1="300" x2="800" y2="350" stroke="#000000" stroke-width="1" opacity="0.1"></line>
        <line x1="800" y1="350" x2="1000" y2="300" stroke="#000000" stroke-width="1" opacity="0.1"></line>
        
        <line x1="200" y1="300" x2="100" y2="500" stroke="#000000" stroke-width="1" opacity="0.1"></line>
        <line x1="400" y1="350" x2="300" y2="550" stroke="#000000" stroke-width="1" opacity="0.1"></line>
        <line x1="600" y1="300" x2="500" y2="500" stroke="#000000" stroke-width="1" opacity="0.1"></line>
        <line x1="800" y1="350" x2="700" y2="550" stroke="#000000" stroke-width="1" opacity="0.1"></line>
        <line x1="1000" y1="300" x2="900" y2="500" stroke="#000000" stroke-width="1" opacity="0.1"></line>
        
        <line x1="100" y1="500" x2="300" y2="550" stroke="#000000" stroke-width="1" opacity="0.1"></line>
        <line x1="300" y1="550" x2="500" y2="500" stroke="#000000" stroke-width="1" opacity="0.1"></line>
        <line x1="500" y1="500" x2="700" y2="550" stroke="#000000" stroke-width="1" opacity="0.1"></line>
        <line x1="700" y1="550" x2="900" y2="500" stroke="#000000" stroke-width="1" opacity="0.1"></line>
        <line x1="900" y1="500" x2="1100" y2="550" stroke="#000000" stroke-width="1" opacity="0.1"></line>
        
        <!-- More connections to lower dots -->
        <line x1="100" y1="500" x2="200" y2="700" stroke="#000000" stroke-width="1" opacity="0.1"></line>
        <line x1="300" y1="550" x2="400" y2="750" stroke="#000000" stroke-width="1" opacity="0.1"></line>
        <line x1="500" y1="500" x2="600" y2="700" stroke="#000000" stroke-width="1" opacity="0.1"></line>
        <line x1="700" y1="550" x2="800" y2="750" stroke="#000000" stroke-width="1" opacity="0.1"></line>
        <line x1="900" y1="500" x2="1000" y2="700" stroke="#000000" stroke-width="1" opacity="0.1"></line>
        
        <line x1="200" y1="700" x2="400" y2="750" stroke="#000000" stroke-width="1" opacity="0.1"></line>
        <line x1="400" y1="750" x2="600" y2="700" stroke="#000000" stroke-width="1" opacity="0.1"></line>
        <line x1="600" y1="700" x2="800" y2="750" stroke="#000000" stroke-width="1" opacity="0.1"></line>
        <line x1="800" y1="750" x2="1000" y2="700" stroke="#000000" stroke-width="1" opacity="0.1"></line>
        
        <line x1="200" y1="700" x2="100" y2="900" stroke="#000000" stroke-width="1" opacity="0.1"></line>
        <line x1="400" y1="750" x2="300" y2="950" stroke="#000000" stroke-width="1" opacity="0.1"></line>
        <line x1="600" y1="700" x2="500" y2="900" stroke="#000000" stroke-width="1" opacity="0.1"></line>
        <line x1="800" y1="750" x2="700" y2="950" stroke="#000000" stroke-width="1" opacity="0.1"></line>
        <line x1="1000" y1="700" x2="900" y2="900" stroke="#000000" stroke-width="1" opacity="0.1"></line>
        
        <line x1="100" y1="900" x2="300" y2="950" stroke="#000000" stroke-width="1" opacity="0.1"></line>
        <line x1="300" y1="950" x2="500" y2="900" stroke="#000000" stroke-width="1" opacity="0.1"></line>
        <line x1="500" y1="900" x2="700" y2="950" stroke="#000000" stroke-width="1" opacity="0.1"></line>
        <line x1="700" y1="950" x2="900" y2="900" stroke="#000000" stroke-width="1" opacity="0.1"></line>
        <line x1="900" y1="900" x2="1100" y2="950" stroke="#000000" stroke-width="1" opacity="0.1"></line>
        
        <line x1="100" y1="900" x2="200" y2="1100" stroke="#000000" stroke-width="1" opacity="0.1"></line>
        <line x1="300" y1="950" x2="400" y2="1150" stroke="#000000" stroke-width="1" opacity="0.1"></line>
        <line x1="500" y1="900" x2="600" y2="1100" stroke="#000000" stroke-width="1" opacity="0.1"></line>
        <line x1="700" y1="950" x2="800" y2="1150" stroke="#000000" stroke-width="1" opacity="0.1"></line>
        <line x1="900" y1="900" x2="1000" y2="1100" stroke="#000000" stroke-width="1" opacity="0.1"></line>
        
        <line x1="200" y1="1100" x2="400" y2="1150" stroke="#000000" stroke-width="1" opacity="0.1"></line>
        <line x1="400" y1="1150" x2="600" y2="1100" stroke="#000000" stroke-width="1" opacity="0.1"></line>
        <line x1="600" y1="1100" x2="800" y2="1150" stroke="#000000" stroke-width="1" opacity="0.1"></line>
        <line x1="800" y1="1150" x2="1000" y2="1100" stroke="#000000" stroke-width="1" opacity="0.1"></line>
    </g>
</svg>
