<?xml version="1.0" encoding="UTF-8"?>
<svg width="400px" height="400px" viewBox="0 0 400 400" version="1.1" xmlns="http://www.w3.org/2000/svg">
    <title>Wave Pattern</title>
    <g stroke="none" stroke-width="1" fill="none" fill-rule="evenodd">
        <!-- Wave patterns in brand colors with low opacity -->
        <path d="M0,100 C50,80 100,120 150,100 C200,80 250,120 300,100 C350,80 400,120 450,100 L450,400 L0,400 Z" fill="#743f77" opacity="0.02"></path>
        <path d="M0,150 C50,130 100,170 150,150 C200,130 250,170 300,150 C350,130 400,170 450,150 L450,400 L0,400 Z" fill="#f15a22" opacity="0.02"></path>
        <path d="M0,200 C50,180 100,220 150,200 C200,180 250,220 300,200 C350,180 400,220 450,200 L450,400 L0,400 Z" fill="#743f77" opacity="0.02"></path>
        <path d="M0,250 C50,230 100,270 150,250 C200,230 250,270 300,250 C350,230 400,270 450,250 L450,400 L0,400 Z" fill="#f15a22" opacity="0.02"></path>
    </g>
</svg>
